<svg id="visual" viewBox="0 0 960 540" width="960" height="540" xmlns="http://www.w3.org/2000/svg" xmlns:xlink="http://www.w3.org/1999/xlink" version="1.1"><rect x="0" y="0" width="960" height="540" fill="#001220"></rect><defs><linearGradient id="grad1_0" x1="43.8%" y1="0%" x2="100%" y2="100%"><stop offset="14.444444444444446%" stop-color="#0d432c" stop-opacity="1"></stop><stop offset="85.55555555555554%" stop-color="#0d432c" stop-opacity="1"></stop></linearGradient></defs><defs><linearGradient id="grad1_1" x1="43.8%" y1="0%" x2="100%" y2="100%"><stop offset="14.444444444444446%" stop-color="#0d432c" stop-opacity="1"></stop><stop offset="85.55555555555554%" stop-color="#003d30" stop-opacity="1"></stop></linearGradient></defs><defs><linearGradient id="grad1_2" x1="43.8%" y1="0%" x2="100%" y2="100%"><stop offset="14.444444444444446%" stop-color="#003632" stop-opacity="1"></stop><stop offset="85.55555555555554%" stop-color="#003d30" stop-opacity="1"></stop></linearGradient></defs><defs><linearGradient id="grad1_3" x1="43.8%" y1="0%" x2="100%" y2="100%"><stop offset="14.444444444444446%" stop-color="#003632" stop-opacity="1"></stop><stop offset="85.55555555555554%" stop-color="#002f33" stop-opacity="1"></stop></linearGradient></defs><defs><linearGradient id="grad1_4" x1="43.8%" y1="0%" x2="100%" y2="100%"><stop offset="14.444444444444446%" stop-color="#002831" stop-opacity="1"></stop><stop offset="85.55555555555554%" stop-color="#002f33" stop-opacity="1"></stop></linearGradient></defs><defs><linearGradient id="grad1_5" x1="43.8%" y1="0%" x2="100%" y2="100%"><stop offset="14.444444444444446%" stop-color="#002831" stop-opacity="1"></stop><stop offset="85.55555555555554%" stop-color="#00212d" stop-opacity="1"></stop></linearGradient></defs><defs><linearGradient id="grad1_6" x1="43.8%" y1="0%" x2="100%" y2="100%"><stop offset="14.444444444444446%" stop-color="#001a27" stop-opacity="1"></stop><stop offset="85.55555555555554%" stop-color="#00212d" stop-opacity="1"></stop></linearGradient></defs><defs><linearGradient id="grad1_7" x1="43.8%" y1="0%" x2="100%" y2="100%"><stop offset="14.444444444444446%" stop-color="#001a27" stop-opacity="1"></stop><stop offset="85.55555555555554%" stop-color="#001220" stop-opacity="1"></stop></linearGradient></defs><defs><linearGradient id="grad2_0" x1="0%" y1="0%" x2="56.3%" y2="100%"><stop offset="14.444444444444446%" stop-color="#0d432c" stop-opacity="1"></stop><stop offset="85.55555555555554%" stop-color="#0d432c" stop-opacity="1"></stop></linearGradient></defs><defs><linearGradient id="grad2_1" x1="0%" y1="0%" x2="56.3%" y2="100%"><stop offset="14.444444444444446%" stop-color="#003d30" stop-opacity="1"></stop><stop offset="85.55555555555554%" stop-color="#0d432c" stop-opacity="1"></stop></linearGradient></defs><defs><linearGradient id="grad2_2" x1="0%" y1="0%" x2="56.3%" y2="100%"><stop offset="14.444444444444446%" stop-color="#003d30" stop-opacity="1"></stop><stop offset="85.55555555555554%" stop-color="#003632" stop-opacity="1"></stop></linearGradient></defs><defs><linearGradient id="grad2_3" x1="0%" y1="0%" x2="56.3%" y2="100%"><stop offset="14.444444444444446%" stop-color="#002f33" stop-opacity="1"></stop><stop offset="85.55555555555554%" stop-color="#003632" stop-opacity="1"></stop></linearGradient></defs><defs><linearGradient id="grad2_4" x1="0%" y1="0%" x2="56.3%" y2="100%"><stop offset="14.444444444444446%" stop-color="#002f33" stop-opacity="1"></stop><stop offset="85.55555555555554%" stop-color="#002831" stop-opacity="1"></stop></linearGradient></defs><defs><linearGradient id="grad2_5" x1="0%" y1="0%" x2="56.3%" y2="100%"><stop offset="14.444444444444446%" stop-color="#00212d" stop-opacity="1"></stop><stop offset="85.55555555555554%" stop-color="#002831" stop-opacity="1"></stop></linearGradient></defs><defs><linearGradient id="grad2_6" x1="0%" y1="0%" x2="56.3%" y2="100%"><stop offset="14.444444444444446%" stop-color="#00212d" stop-opacity="1"></stop><stop offset="85.55555555555554%" stop-color="#001a27" stop-opacity="1"></stop></linearGradient></defs><defs><linearGradient id="grad2_7" x1="0%" y1="0%" x2="56.3%" y2="100%"><stop offset="14.444444444444446%" stop-color="#001220" stop-opacity="1"></stop><stop offset="85.55555555555554%" stop-color="#001a27" stop-opacity="1"></stop></linearGradient></defs><g transform="translate(960, 0)"><path d="M0 513C-54.8 440 -109.7 367 -192.5 333.4C-275.3 299.8 -386.2 305.5 -444.3 256.5C-502.4 207.5 -507.7 103.7 -513 0L0 0Z" fill="#001624"></path><path d="M0 448.9C-48 385 -96 321.2 -168.4 291.7C-240.9 262.3 -337.9 267.3 -388.7 224.4C-439.6 181.6 -444.2 90.8 -448.9 0L0 0Z" fill="#001d2a"></path><path d="M0 384.8C-41.1 330 -82.2 275.3 -144.4 250.1C-206.5 224.8 -289.6 229.1 -333.2 192.4C-376.8 155.6 -380.8 77.8 -384.7 0L0 0Z" fill="#00242f"></path><path d="M0 320.6C-34.3 275 -68.5 229.4 -120.3 208.4C-172.1 187.4 -241.4 190.9 -277.7 160.3C-314 129.7 -317.3 64.8 -320.6 0L0 0Z" fill="#002b32"></path><path d="M0 256.5C-27.4 220 -54.8 183.5 -96.2 166.7C-137.7 149.9 -193.1 152.8 -222.1 128.3C-251.2 103.7 -253.8 51.9 -256.5 0L0 0Z" fill="#003233"></path><path d="M0 192.4C-20.6 165 -41.1 137.6 -72.2 125C-103.3 112.4 -144.8 114.6 -166.6 96.2C-188.4 77.8 -190.4 38.9 -192.4 0L0 0Z" fill="#003931"></path><path d="M0 128.3C-13.7 110 -27.4 91.8 -48.1 83.4C-68.8 74.9 -96.5 76.4 -111.1 64.1C-125.6 51.9 -126.9 25.9 -128.2 0L0 0Z" fill="#00402e"></path><path d="M0 64.1C-6.9 55 -13.7 45.9 -24.1 41.7C-34.4 37.5 -48.3 38.2 -55.5 32.1C-62.8 25.9 -63.5 13 -64.1 0L0 0Z" fill="#0d432c"></path></g><g transform="translate(0, 540)"><path d="M0 -513C70.6 -467.3 141.1 -421.5 222 -384.5C302.9 -347.5 394.1 -319.1 444.3 -256.5C494.5 -193.9 503.7 -96.9 513 0L0 0Z" fill="#001624"></path><path d="M0 -448.9C61.7 -408.9 123.5 -368.9 194.2 -336.5C265 -304 344.8 -279.2 388.7 -224.4C432.7 -169.6 440.8 -84.8 448.9 0L0 0Z" fill="#001d2a"></path><path d="M0 -384.7C52.9 -350.5 105.8 -316.2 166.5 -288.4C227.2 -260.6 295.5 -239.4 333.2 -192.4C370.9 -145.4 377.8 -72.7 384.8 0L0 0Z" fill="#00242f"></path><path d="M0 -320.6C44.1 -292 88.2 -263.5 138.7 -240.3C189.3 -217.2 246.3 -199.5 277.7 -160.3C309.1 -121.2 314.8 -60.6 320.6 0L0 0Z" fill="#002b32"></path><path d="M0 -256.5C35.3 -233.6 70.6 -210.8 111 -192.3C151.4 -173.7 197 -159.6 222.1 -128.3C247.2 -96.9 251.9 -48.5 256.5 0L0 0Z" fill="#003233"></path><path d="M0 -192.4C26.5 -175.2 52.9 -158.1 83.2 -144.2C113.6 -130.3 147.8 -119.7 166.6 -96.2C185.4 -72.7 188.9 -36.3 192.4 0L0 0Z" fill="#003931"></path><path d="M0 -128.2C17.6 -116.8 35.3 -105.4 55.5 -96.1C75.7 -86.9 98.5 -79.8 111.1 -64.1C123.6 -48.5 125.9 -24.2 128.3 0L0 0Z" fill="#00402e"></path><path d="M0 -64.1C8.8 -58.4 17.6 -52.7 27.7 -48.1C37.9 -43.4 49.3 -39.9 55.5 -32.1C61.8 -24.2 63 -12.1 64.1 0L0 0Z" fill="#0d432c"></path></g></svg>